<?xml version="1.0" encoding="UTF-8" standalone="no"?>
<!DOCTYPE svg PUBLIC "-//W3C//DTD SVG 1.1//EN"
 "http://www.w3.org/Graphics/SVG/1.1/DTD/svg11.dtd">
<!-- Generated by graphviz version 2.42.4 (0)
 -->
<!-- Title: rl Pages: 1 -->
<svg width="346pt" height="451pt"
 viewBox="0.00 0.00 346.00 451.00" xmlns="http://www.w3.org/2000/svg" xmlns:xlink="http://www.w3.org/1999/xlink">
<g id="graph0" class="graph" transform="scale(1 1) rotate(0) translate(4 447)">
<title>rl</title>
<polygon fill="white" stroke="transparent" points="-4,4 -4,-447 342,-447 342,4 -4,4"/>
<!-- entry_0 -->
<g id="node1" class="node">
<title>entry_0</title>
<path fill="none" stroke="black" stroke-width="2" d="M119,-389.5C119,-389.5 219,-389.5 219,-389.5 225,-389.5 231,-395.5 231,-401.5 231,-401.5 231,-430.5 231,-430.5 231,-436.5 225,-442.5 219,-442.5 219,-442.5 119,-442.5 119,-442.5 113,-442.5 107,-436.5 107,-430.5 107,-430.5 107,-401.5 107,-401.5 107,-395.5 113,-389.5 119,-389.5"/>
<text text-anchor="middle" x="169" y="-427.3" font-family="Courier,monospace" font-size="14.00">entry_0</text>
<text text-anchor="middle" x="169" y="-412.3" font-family="Courier,monospace" font-size="14.00">entry;</text>
<text text-anchor="middle" x="169" y="-397.3" font-family="Courier,monospace" font-size="14.00">goto start_1;</text>
</g>
<!-- start_1 -->
<g id="node2" class="node">
<title>start_1</title>
<polygon fill="none" stroke="black" points="0,-298.5 0,-351.5 338,-351.5 338,-298.5 0,-298.5"/>
<text text-anchor="middle" x="169" y="-336.3" font-family="Courier,monospace" font-size="14.00">start_1</text>
<text text-anchor="middle" x="169" y="-321.3" font-family="Courier,monospace" font-size="14.00">from entry_0;</text>
<text text-anchor="middle" x="169" y="-306.3" font-family="Courier,monospace" font-size="14.00">if (!= flag 0) goto then_3 else else_4;</text>
</g>
<!-- entry_0&#45;&gt;start_1 -->
<g id="edge1" class="edge">
<title>entry_0&#45;&gt;start_1</title>
<path fill="none" stroke="black" d="M169,-389.26C169,-380.68 169,-370.96 169,-361.76"/>
<polygon fill="black" stroke="black" points="172.5,-361.68 169,-351.68 165.5,-361.68 172.5,-361.68"/>
</g>
<!-- then_3 -->
<g id="node3" class="node">
<title>then_3</title>
<polygon fill="none" stroke="black" points="36,-182.5 36,-250.5 160,-250.5 160,-182.5 36,-182.5"/>
<text text-anchor="middle" x="98" y="-235.3" font-family="Courier,monospace" font-size="14.00">then_3</text>
<text text-anchor="middle" x="98" y="-220.3" font-family="Courier,monospace" font-size="14.00">from start_1;</text>
<text text-anchor="middle" x="98" y="-205.3" font-family="Courier,monospace" font-size="14.00">y ^= x;</text>
<text text-anchor="middle" x="98" y="-190.3" font-family="Courier,monospace" font-size="14.00">goto join_5;</text>
</g>
<!-- start_1&#45;&gt;then_3 -->
<g id="edge2" class="edge">
<title>start_1&#45;&gt;then_3</title>
<path fill="none" stroke="darkgreen" d="M151.99,-298.49C144.19,-286.78 134.72,-272.58 125.91,-259.37"/>
<polygon fill="darkgreen" stroke="darkgreen" points="128.7,-257.24 120.24,-250.86 122.88,-261.13 128.7,-257.24"/>
<text text-anchor="middle" x="141.5" y="-272" font-family="Courier,monospace" font-size="10.00">T</text>
</g>
<!-- else_4 -->
<g id="node4" class="node">
<title>else_4</title>
<polygon fill="none" stroke="black" points="178,-190 178,-243 302,-243 302,-190 178,-190"/>
<text text-anchor="middle" x="240" y="-227.8" font-family="Courier,monospace" font-size="14.00">else_4</text>
<text text-anchor="middle" x="240" y="-212.8" font-family="Courier,monospace" font-size="14.00">from start_1;</text>
<text text-anchor="middle" x="240" y="-197.8" font-family="Courier,monospace" font-size="14.00">goto join_5;</text>
</g>
<!-- start_1&#45;&gt;else_4 -->
<g id="edge3" class="edge">
<title>start_1&#45;&gt;else_4</title>
<path fill="none" stroke="red" stroke-dasharray="5,2" d="M186.01,-298.49C195.33,-284.5 207.03,-266.96 217.14,-251.79"/>
<polygon fill="red" stroke="red" points="220.25,-253.43 222.89,-243.17 214.43,-249.55 220.25,-253.43"/>
<text text-anchor="middle" x="207.5" y="-272" font-family="Courier,monospace" font-size="10.00">F</text>
</g>
<!-- join_5 -->
<g id="node5" class="node">
<title>join_5</title>
<polygon fill="none" stroke="black" points="15.5,-91.5 15.5,-144.5 320.5,-144.5 320.5,-91.5 15.5,-91.5"/>
<text text-anchor="middle" x="168" y="-129.3" font-family="Courier,monospace" font-size="14.00">join_5</text>
<text text-anchor="middle" x="168" y="-114.3" font-family="Courier,monospace" font-size="14.00">fi (= y x) from then_3 else else_4;</text>
<text text-anchor="middle" x="168" y="-99.3" font-family="Courier,monospace" font-size="14.00">goto exit_2;</text>
</g>
<!-- then_3&#45;&gt;join_5 -->
<g id="edge4" class="edge">
<title>then_3&#45;&gt;join_5</title>
<path fill="none" stroke="black" d="M122.09,-182.29C129,-172.76 136.55,-162.36 143.48,-152.8"/>
<polygon fill="black" stroke="black" points="146.36,-154.8 149.39,-144.65 140.69,-150.69 146.36,-154.8"/>
</g>
<!-- else_4&#45;&gt;join_5 -->
<g id="edge5" class="edge">
<title>else_4&#45;&gt;join_5</title>
<path fill="none" stroke="black" d="M220.89,-189.89C212.43,-178.55 202.36,-165.05 193.29,-152.89"/>
<polygon fill="black" stroke="black" points="195.98,-150.65 187.19,-144.73 190.37,-154.83 195.98,-150.65"/>
</g>
<!-- exit_2 -->
<g id="node6" class="node">
<title>exit_2</title>
<path fill="none" stroke="black" stroke-width="2" d="M122,-0.5C122,-0.5 214,-0.5 214,-0.5 220,-0.5 226,-6.5 226,-12.5 226,-12.5 226,-41.5 226,-41.5 226,-47.5 220,-53.5 214,-53.5 214,-53.5 122,-53.5 122,-53.5 116,-53.5 110,-47.5 110,-41.5 110,-41.5 110,-12.5 110,-12.5 110,-6.5 116,-0.5 122,-0.5"/>
<text text-anchor="middle" x="168" y="-38.3" font-family="Courier,monospace" font-size="14.00">exit_2</text>
<text text-anchor="middle" x="168" y="-23.3" font-family="Courier,monospace" font-size="14.00">from join_5;</text>
<text text-anchor="middle" x="168" y="-8.3" font-family="Courier,monospace" font-size="14.00">exit;</text>
</g>
<!-- join_5&#45;&gt;exit_2 -->
<g id="edge6" class="edge">
<title>join_5&#45;&gt;exit_2</title>
<path fill="none" stroke="black" d="M168,-91.26C168,-82.68 168,-72.96 168,-63.76"/>
<polygon fill="black" stroke="black" points="171.5,-63.68 168,-53.68 164.5,-63.68 171.5,-63.68"/>
</g>
</g>
</svg>
