<?xml version="1.0" encoding="UTF-8" standalone="no"?>
<!DOCTYPE svg PUBLIC "-//W3C//DTD SVG 1.1//EN"
 "http://www.w3.org/Graphics/SVG/1.1/DTD/svg11.dtd">
<!-- Generated by graphviz version 2.42.4 (0)
 -->
<!-- Title: rl Pages: 1 -->
<svg width="132pt" height="257pt"
 viewBox="0.00 0.00 132.00 257.00" xmlns="http://www.w3.org/2000/svg" xmlns:xlink="http://www.w3.org/1999/xlink">
<g id="graph0" class="graph" transform="scale(1 1) rotate(0) translate(4 253)">
<title>rl</title>
<polygon fill="white" stroke="transparent" points="-4,4 -4,-253 128,-253 128,4 -4,4"/>
<!-- entry_0 -->
<g id="node1" class="node">
<title>entry_0</title>
<path fill="none" stroke="black" stroke-width="2" d="M12,-195.5C12,-195.5 112,-195.5 112,-195.5 118,-195.5 124,-201.5 124,-207.5 124,-207.5 124,-236.5 124,-236.5 124,-242.5 118,-248.5 112,-248.5 112,-248.5 12,-248.5 12,-248.5 6,-248.5 0,-242.5 0,-236.5 0,-236.5 0,-207.5 0,-207.5 0,-201.5 6,-195.5 12,-195.5"/>
<text text-anchor="middle" x="62" y="-233.3" font-family="Courier,monospace" font-size="14.00">entry_0</text>
<text text-anchor="middle" x="62" y="-218.3" font-family="Courier,monospace" font-size="14.00">entry;</text>
<text text-anchor="middle" x="62" y="-203.3" font-family="Courier,monospace" font-size="14.00">goto start_1;</text>
</g>
<!-- start_1 -->
<g id="node2" class="node">
<title>start_1</title>
<polygon fill="none" stroke="black" points="0,-90.5 0,-158.5 124,-158.5 124,-90.5 0,-90.5"/>
<text text-anchor="middle" x="62" y="-143.3" font-family="Courier,monospace" font-size="14.00">start_1</text>
<text text-anchor="middle" x="62" y="-128.3" font-family="Courier,monospace" font-size="14.00">from entry_0;</text>
<text text-anchor="middle" x="62" y="-113.3" font-family="Courier,monospace" font-size="14.00">y += x;</text>
<text text-anchor="middle" x="62" y="-98.3" font-family="Courier,monospace" font-size="14.00">goto exit_2;</text>
</g>
<!-- entry_0&#45;&gt;start_1 -->
<g id="edge1" class="edge">
<title>entry_0&#45;&gt;start_1</title>
<path fill="none" stroke="black" d="M62,-195.41C62,-187.22 62,-177.91 62,-168.82"/>
<polygon fill="black" stroke="black" points="65.5,-168.72 62,-158.72 58.5,-168.72 65.5,-168.72"/>
</g>
<!-- exit_2 -->
<g id="node3" class="node">
<title>exit_2</title>
<path fill="none" stroke="black" stroke-width="2" d="M12,-0.5C12,-0.5 112,-0.5 112,-0.5 118,-0.5 124,-6.5 124,-12.5 124,-12.5 124,-41.5 124,-41.5 124,-47.5 118,-53.5 112,-53.5 112,-53.5 12,-53.5 12,-53.5 6,-53.5 0,-47.5 0,-41.5 0,-41.5 0,-12.5 0,-12.5 0,-6.5 6,-0.5 12,-0.5"/>
<text text-anchor="middle" x="62" y="-38.3" font-family="Courier,monospace" font-size="14.00">exit_2</text>
<text text-anchor="middle" x="62" y="-23.3" font-family="Courier,monospace" font-size="14.00">from start_1;</text>
<text text-anchor="middle" x="62" y="-8.3" font-family="Courier,monospace" font-size="14.00">exit;</text>
</g>
<!-- start_1&#45;&gt;exit_2 -->
<g id="edge2" class="edge">
<title>start_1&#45;&gt;exit_2</title>
<path fill="none" stroke="black" d="M62,-90.37C62,-81.79 62,-72.51 62,-63.8"/>
<polygon fill="black" stroke="black" points="65.5,-63.55 62,-53.55 58.5,-63.55 65.5,-63.55"/>
</g>
</g>
</svg>
