<?xml version="1.0" encoding="UTF-8" standalone="no"?>
<!DOCTYPE svg PUBLIC "-//W3C//DTD SVG 1.1//EN"
 "http://www.w3.org/Graphics/SVG/1.1/DTD/svg11.dtd">
<!-- Generated by graphviz version 2.42.4 (0)
 -->
<!-- Title: rl Pages: 1 -->
<svg width="363pt" height="284pt"
 viewBox="0.00 0.00 363.00 284.00" xmlns="http://www.w3.org/2000/svg" xmlns:xlink="http://www.w3.org/1999/xlink">
<g id="graph0" class="graph" transform="scale(1 1) rotate(0) translate(4 280)">
<title>rl</title>
<polygon fill="white" stroke="transparent" points="-4,4 -4,-280 359,-280 359,4 -4,4"/>
<!-- start -->
<g id="node1" class="node">
<title>start</title>
<path fill="none" stroke="black" stroke-width="2" d="M12,-222.5C12,-222.5 343,-222.5 343,-222.5 349,-222.5 355,-228.5 355,-234.5 355,-234.5 355,-263.5 355,-263.5 355,-269.5 349,-275.5 343,-275.5 343,-275.5 12,-275.5 12,-275.5 6,-275.5 0,-269.5 0,-263.5 0,-263.5 0,-234.5 0,-234.5 0,-228.5 6,-222.5 12,-222.5"/>
<text text-anchor="middle" x="177.5" y="-260.3" font-family="Courier,monospace" font-size="14.00">start</text>
<text text-anchor="middle" x="177.5" y="-245.3" font-family="Courier,monospace" font-size="14.00">entry;</text>
<text text-anchor="middle" x="177.5" y="-230.3" font-family="Courier,monospace" font-size="14.00">if (!= flag 0) goto tbranch else ebranch;</text>
</g>
<!-- tbranch -->
<g id="node2" class="node">
<title>tbranch</title>
<polygon fill="none" stroke="black" points="62,-91.5 62,-174.5 169,-174.5 169,-91.5 62,-91.5"/>
<text text-anchor="middle" x="115.5" y="-159.3" font-family="Courier,monospace" font-size="14.00">tbranch</text>
<text text-anchor="middle" x="115.5" y="-144.3" font-family="Courier,monospace" font-size="14.00">from start;</text>
<text text-anchor="middle" x="115.5" y="-129.3" font-family="Courier,monospace" font-size="14.00">y ^= x;</text>
<text text-anchor="middle" x="115.5" y="-114.3" font-family="Courier,monospace" font-size="14.00">y += 1;</text>
<text text-anchor="middle" x="115.5" y="-99.3" font-family="Courier,monospace" font-size="14.00">goto join;</text>
</g>
<!-- start&#45;&gt;tbranch -->
<g id="edge1" class="edge">
<title>start&#45;&gt;tbranch</title>
<path fill="none" stroke="darkgreen" d="M163.59,-222.42C157.38,-211 149.84,-197.14 142.59,-183.82"/>
<polygon fill="darkgreen" stroke="darkgreen" points="145.49,-181.83 137.64,-174.71 139.35,-185.17 145.49,-181.83"/>
<text text-anchor="middle" x="156" y="-196" font-family="Courier,monospace" font-size="10.00">T</text>
</g>
<!-- ebranch -->
<g id="node3" class="node">
<title>ebranch</title>
<polygon fill="none" stroke="black" points="187,-99 187,-167 294,-167 294,-99 187,-99"/>
<text text-anchor="middle" x="240.5" y="-151.8" font-family="Courier,monospace" font-size="14.00">ebranch</text>
<text text-anchor="middle" x="240.5" y="-136.8" font-family="Courier,monospace" font-size="14.00">from start;</text>
<text text-anchor="middle" x="240.5" y="-121.8" font-family="Courier,monospace" font-size="14.00">y &#45;= x;</text>
<text text-anchor="middle" x="240.5" y="-106.8" font-family="Courier,monospace" font-size="14.00">goto join;</text>
</g>
<!-- start&#45;&gt;ebranch -->
<g id="edge2" class="edge">
<title>start&#45;&gt;ebranch</title>
<path fill="none" stroke="red" stroke-dasharray="5,2" d="M191.64,-222.42C199.16,-208.81 208.6,-191.72 217.17,-176.21"/>
<polygon fill="red" stroke="red" points="220.33,-177.74 222.1,-167.29 214.2,-174.35 220.33,-177.74"/>
<text text-anchor="middle" x="210" y="-196" font-family="Courier,monospace" font-size="10.00">F</text>
</g>
<!-- join -->
<g id="node4" class="node">
<title>join</title>
<path fill="none" stroke="black" stroke-width="2" d="M12,-0.5C12,-0.5 343,-0.5 343,-0.5 349,-0.5 355,-6.5 355,-12.5 355,-12.5 355,-41.5 355,-41.5 355,-47.5 349,-53.5 343,-53.5 343,-53.5 12,-53.5 12,-53.5 6,-53.5 0,-47.5 0,-41.5 0,-41.5 0,-12.5 0,-12.5 0,-6.5 6,-0.5 12,-0.5"/>
<text text-anchor="middle" x="177.5" y="-38.3" font-family="Courier,monospace" font-size="14.00">join</text>
<text text-anchor="middle" x="177.5" y="-23.3" font-family="Courier,monospace" font-size="14.00">fi (!= flag 0) from tbranch else ebranch;</text>
<text text-anchor="middle" x="177.5" y="-8.3" font-family="Courier,monospace" font-size="14.00">exit;</text>
</g>
<!-- tbranch&#45;&gt;join -->
<g id="edge3" class="edge">
<title>tbranch&#45;&gt;join</title>
<path fill="none" stroke="black" d="M139.65,-91.49C145.42,-81.81 151.53,-71.57 157.11,-62.21"/>
<polygon fill="black" stroke="black" points="160.16,-63.92 162.27,-53.54 154.15,-60.34 160.16,-63.92"/>
</g>
<!-- ebranch&#45;&gt;join -->
<g id="edge4" class="edge">
<title>ebranch&#45;&gt;join</title>
<path fill="none" stroke="black" d="M220.39,-98.81C213.33,-87.15 205.39,-74.04 198.28,-62.3"/>
<polygon fill="black" stroke="black" points="201.2,-60.38 193.03,-53.64 195.22,-64 201.2,-60.38"/>
</g>
</g>
</svg>
