<?xml version="1.0" encoding="UTF-8" standalone="no"?>
<!DOCTYPE svg PUBLIC "-//W3C//DTD SVG 1.1//EN"
 "http://www.w3.org/Graphics/SVG/1.1/DTD/svg11.dtd">
<!-- Generated by graphviz version 2.42.4 (0)
 -->
<!-- Title: rl Pages: 1 -->
<svg width="132pt" height="467pt"
 viewBox="0.00 0.00 132.00 467.00" xmlns="http://www.w3.org/2000/svg" xmlns:xlink="http://www.w3.org/1999/xlink">
<g id="graph0" class="graph" transform="scale(1 1) rotate(0) translate(4 463)">
<title>rl</title>
<polygon fill="white" stroke="transparent" points="-4,4 -4,-463 128,-463 128,4 -4,4"/>
<!-- entry_0 -->
<g id="node1" class="node">
<title>entry_0</title>
<path fill="none" stroke="black" stroke-width="2" d="M12,-405.5C12,-405.5 112,-405.5 112,-405.5 118,-405.5 124,-411.5 124,-417.5 124,-417.5 124,-446.5 124,-446.5 124,-452.5 118,-458.5 112,-458.5 112,-458.5 12,-458.5 12,-458.5 6,-458.5 0,-452.5 0,-446.5 0,-446.5 0,-417.5 0,-417.5 0,-411.5 6,-405.5 12,-405.5"/>
<text text-anchor="middle" x="62" y="-443.3" font-family="Courier,monospace" font-size="14.00">entry_0</text>
<text text-anchor="middle" x="62" y="-428.3" font-family="Courier,monospace" font-size="14.00">entry;</text>
<text text-anchor="middle" x="62" y="-413.3" font-family="Courier,monospace" font-size="14.00">goto start_1;</text>
</g>
<!-- start_1 -->
<g id="node2" class="node">
<title>start_1</title>
<polygon fill="none" stroke="black" points="0,-300.5 0,-368.5 124,-368.5 124,-300.5 0,-300.5"/>
<text text-anchor="middle" x="62" y="-353.3" font-family="Courier,monospace" font-size="14.00">start_1</text>
<text text-anchor="middle" x="62" y="-338.3" font-family="Courier,monospace" font-size="14.00">from entry_0;</text>
<text text-anchor="middle" x="62" y="-323.3" font-family="Courier,monospace" font-size="14.00">a2 += b;</text>
<text text-anchor="middle" x="62" y="-308.3" font-family="Courier,monospace" font-size="14.00">goto seq_3;</text>
</g>
<!-- entry_0&#45;&gt;start_1 -->
<g id="edge1" class="edge">
<title>entry_0&#45;&gt;start_1</title>
<path fill="none" stroke="black" d="M62,-405.41C62,-397.22 62,-387.91 62,-378.82"/>
<polygon fill="black" stroke="black" points="65.5,-378.72 62,-368.72 58.5,-378.72 65.5,-378.72"/>
</g>
<!-- seq_3 -->
<g id="node3" class="node">
<title>seq_3</title>
<polygon fill="none" stroke="black" points="0,-195.5 0,-263.5 124,-263.5 124,-195.5 0,-195.5"/>
<text text-anchor="middle" x="62" y="-248.3" font-family="Courier,monospace" font-size="14.00">seq_3</text>
<text text-anchor="middle" x="62" y="-233.3" font-family="Courier,monospace" font-size="14.00">from start_1;</text>
<text text-anchor="middle" x="62" y="-218.3" font-family="Courier,monospace" font-size="14.00">b2 += a;</text>
<text text-anchor="middle" x="62" y="-203.3" font-family="Courier,monospace" font-size="14.00">goto seq_4;</text>
</g>
<!-- start_1&#45;&gt;seq_3 -->
<g id="edge2" class="edge">
<title>start_1&#45;&gt;seq_3</title>
<path fill="none" stroke="black" d="M62,-300.34C62,-291.89 62,-282.68 62,-273.8"/>
<polygon fill="black" stroke="black" points="65.5,-273.59 62,-263.59 58.5,-273.59 65.5,-273.59"/>
</g>
<!-- seq_4 -->
<g id="node4" class="node">
<title>seq_4</title>
<polygon fill="none" stroke="black" points="4,-90.5 4,-158.5 120,-158.5 120,-90.5 4,-90.5"/>
<text text-anchor="middle" x="62" y="-143.3" font-family="Courier,monospace" font-size="14.00">seq_4</text>
<text text-anchor="middle" x="62" y="-128.3" font-family="Courier,monospace" font-size="14.00">from seq_3;</text>
<text text-anchor="middle" x="62" y="-113.3" font-family="Courier,monospace" font-size="14.00">b2 += b;</text>
<text text-anchor="middle" x="62" y="-98.3" font-family="Courier,monospace" font-size="14.00">goto exit_2;</text>
</g>
<!-- seq_3&#45;&gt;seq_4 -->
<g id="edge3" class="edge">
<title>seq_3&#45;&gt;seq_4</title>
<path fill="none" stroke="black" d="M62,-195.34C62,-186.89 62,-177.68 62,-168.8"/>
<polygon fill="black" stroke="black" points="65.5,-168.59 62,-158.59 58.5,-168.59 65.5,-168.59"/>
</g>
<!-- exit_2 -->
<g id="node5" class="node">
<title>exit_2</title>
<path fill="none" stroke="black" stroke-width="2" d="M20.5,-0.5C20.5,-0.5 103.5,-0.5 103.5,-0.5 109.5,-0.5 115.5,-6.5 115.5,-12.5 115.5,-12.5 115.5,-41.5 115.5,-41.5 115.5,-47.5 109.5,-53.5 103.5,-53.5 103.5,-53.5 20.5,-53.5 20.5,-53.5 14.5,-53.5 8.5,-47.5 8.5,-41.5 8.5,-41.5 8.5,-12.5 8.5,-12.5 8.5,-6.5 14.5,-0.5 20.5,-0.5"/>
<text text-anchor="middle" x="62" y="-38.3" font-family="Courier,monospace" font-size="14.00">exit_2</text>
<text text-anchor="middle" x="62" y="-23.3" font-family="Courier,monospace" font-size="14.00">from seq_4;</text>
<text text-anchor="middle" x="62" y="-8.3" font-family="Courier,monospace" font-size="14.00">exit;</text>
</g>
<!-- seq_4&#45;&gt;exit_2 -->
<g id="edge4" class="edge">
<title>seq_4&#45;&gt;exit_2</title>
<path fill="none" stroke="black" d="M62,-90.37C62,-81.79 62,-72.51 62,-63.8"/>
<polygon fill="black" stroke="black" points="65.5,-63.55 62,-53.55 58.5,-63.55 65.5,-63.55"/>
</g>
</g>
</svg>
